<svg id="Capa_1" enable-background="new 0 0 512 512" height="512" viewBox="0 0 512 512" width="512" xmlns="http://www.w3.org/2000/svg"><circle cx="256" cy="256" fill="#fdba12" r="256"/><path d="m511.606 270.127-180.346-180.347-122.86 153.235-145.505 76.973 84.641 84.641-14.244 18.908 85.805 85.805c12.052 1.74 24.37 2.658 36.903 2.658 136.644 0 248.273-107.06 255.606-241.873z" fill="#ff9700"/><path d="m462.128 283.302c-4.61-19.149-23.873-30.933-43.019-26.325-28.264 6.804-50.341 3.04-67.49-11.506-3.162-2.682-5.899-5.523-8.25-8.314 11.514-24.643 18.248-51.28 18.248-73.287 0-58.33-47.286-105.617-105.617-105.617s-105.617 47.287-105.617 105.618c0 22.005 6.733 48.641 18.246 73.283-1.923 2.285-4.102 4.604-6.558 6.833-17.365 15.767-39.994 20.017-69.181 12.99-19.147-4.609-38.409 7.176-43.019 26.325s7.176 38.409 26.325 43.019c15.281 3.679 29.328 5.271 42.205 5.271 21.808 0 40.242-4.574 55.58-11.317-11.484 21.448-24.183 36.577-36.454 43.216-17.323 9.372-23.769 31.013-14.397 48.336 6.454 11.93 18.724 18.7 31.398 18.7 5.73 0 11.545-1.385 16.938-4.303 29.297-15.85 54.373-46.403 74.53-90.811 3.552-7.825 6.628-15.395 9.25-22.354.251.003.501.018.752.018s.501-.015.752-.018c2.621 6.96 5.698 14.53 9.249 22.354 20.158 44.408 45.233 74.961 74.531 90.811 5.395 2.919 11.207 4.303 16.938 4.303 12.673 0 24.944-6.771 31.398-18.7 9.372-17.323 2.926-38.964-14.397-48.336-12.271-6.639-24.97-21.767-36.453-43.214 15.337 6.742 33.77 11.316 55.579 11.316 12.874 0 26.928-1.593 42.205-5.271 19.152-4.61 30.938-23.871 26.328-43.02z" fill="#4a7aff"/><path d="m462.128 283.302c-4.61-19.149-23.873-30.933-43.019-26.325-28.264 6.804-50.341 3.04-67.49-11.506-3.161-2.682-5.899-5.523-8.25-8.314 11.514-24.643 18.248-51.28 18.248-73.287 0-58.33-47.286-105.617-105.617-105.617-.135 0-.27.005 0-.057v254.808c-.27.067-.136.072 0 .072.251 0 .501-.015.752-.018 2.621 6.96 5.698 14.53 9.249 22.354 20.158 44.408 45.233 74.961 74.531 90.811 5.395 2.918 11.207 4.303 16.938 4.303 12.673 0 24.944-6.771 31.398-18.7 9.372-17.323 2.926-38.964-14.397-48.336-12.271-6.639-24.97-21.767-36.453-43.214 15.337 6.742 33.77 11.316 55.579 11.316 12.874 0 26.928-1.593 42.205-5.271 19.15-4.609 30.936-23.87 26.326-43.019z" fill="#0053bf"/><circle cx="213.708" cy="237.482" fill="#27488f" r="11.202"/><circle cx="298.292" cy="237.482" fill="#12254c" r="11.202"/></svg>